<?xml version="1.0" encoding="UTF-8" standalone="no"?>
<!-- Created with Inkscape (http://www.inkscape.org/) -->

<svg
   version="1.1"
   id="svg4485"
   width="209.00002"
   height="334"
   viewBox="0 0 209.00002 334"
   sodipodi:docname="pleroma.svg"
   inkscape:version="1.1 (c68e22c387, 2021-05-23)"
   xmlns:inkscape="http://www.inkscape.org/namespaces/inkscape"
   xmlns:sodipodi="http://sodipodi.sourceforge.net/DTD/sodipodi-0.dtd"
   xmlns="http://www.w3.org/2000/svg"
   xmlns:svg="http://www.w3.org/2000/svg"
   xmlns:rdf="http://www.w3.org/1999/02/22-rdf-syntax-ns#"
   xmlns:cc="http://creativecommons.org/ns#"
   xmlns:dc="http://purl.org/dc/elements/1.1/">
  <metadata
     id="metadata4491">
    <rdf:RDF>
      <cc:Work
         rdf:about="">
        <dc:format>image/svg+xml</dc:format>
        <dc:type
           rdf:resource="http://purl.org/dc/dcmitype/StillImage" />
      </cc:Work>
    </rdf:RDF>
  </metadata>
  <defs
     id="defs4489" />
  <sodipodi:namedview
     pagecolor="#ffffff"
     bordercolor="#000000"
     borderopacity="1"
     objecttolerance="10"
     gridtolerance="10"
     guidetolerance="10"
     inkscape:pageopacity="0"
     inkscape:pageshadow="2"
     inkscape:window-width="1920"
     inkscape:window-height="1017"
     id="namedview4487"
     showgrid="false"
     inkscape:zoom="2"
     inkscape:cx="-7.75"
     inkscape:cy="190.75"
     inkscape:window-x="1912"
     inkscape:window-y="-8"
     inkscape:window-maximized="1"
     inkscape:current-layer="svg4485"
     inkscape:pagecheckerboard="0" />
  <g
     id="g4612"
     transform="translate(-152,-89)">
    <path
       sodipodi:nodetypes="cccccc"
       inkscape:connector-curvature="0"
       id="path4495"
       d="M 235,89 V 423 H 152 V 115 l 26,-26 z"
       style="opacity:1;fill:#fba457;fill-opacity:1;stroke:#009bff;stroke-width:0;stroke-linecap:butt;stroke-linejoin:miter;stroke-miterlimit:4;stroke-dasharray:none;stroke-opacity:0.17587938" />
    <circle
       r="26"
       cx="178"
       cy="115"
       id="path4497"
       style="opacity:1;fill:#fba457;fill-opacity:1;stroke:#009bff;stroke-width:0;stroke-linecap:round;stroke-miterlimit:4;stroke-dasharray:none;stroke-opacity:0.17587938" />
    <circle
       r="26"
       cx="335"
       cy="230"
       id="path4497-0"
       style="opacity:1;fill:#fba457;fill-opacity:1;stroke:#009bff;stroke-width:0;stroke-linecap:round;stroke-miterlimit:4;stroke-dasharray:none;stroke-opacity:0.17587938" />
    <path
       sodipodi:nodetypes="cccccc"
       inkscape:connector-curvature="0"
       id="path4516"
       d="M 277,256 V 89 l 84,3e-6 L 361.00002,230 335,256 Z"
       style="fill:#fba457;fill-opacity:1;stroke:#000000;stroke-width:0;stroke-linecap:butt;stroke-linejoin:miter;stroke-miterlimit:4;stroke-dasharray:none;stroke-opacity:1" />
    <circle
       r="26"
       cx="335"
       cy="397"
       id="path4497-0-6"
       style="opacity:1;fill:#fba457;fill-opacity:1;stroke:#009bff;stroke-width:0;stroke-linecap:round;stroke-miterlimit:4;stroke-dasharray:none;stroke-opacity:0.17587938" />
    <path
       sodipodi:nodetypes="cccccc"
       inkscape:connector-curvature="0"
       id="path4516-5"
       d="m 277,423 v -83 h 84 l 2e-5,57 L 335,423 Z"
       style="opacity:1;fill:#fba457;fill-opacity:1;stroke:#000000;stroke-width:0;stroke-linecap:butt;stroke-linejoin:miter;stroke-miterlimit:4;stroke-dasharray:none;stroke-opacity:1" />
  </g>
  <path
     style="fill:#ffffff;stroke-width:0.353553"
     d="M 48.019731,-0.59385921 C 39.228502,-0.41891654 30.391154,-0.83105818 21.629595,-0.05800485 11.111703,1.5686331 2.5278871,10.203058 -0.05976155,20.382019 -0.5007755,27.37897 -0.12852762,34.498177 -0.25838422,41.54183 c -0.0562021,97.40396 -0.11287629,194.80792 -0.16974684,292.21188 1.31894676,1.38377 4.04901946,0.21595 5.90337486,0.60077 25.8110082,0 51.6220162,0 77.4330262,0 1.382397,-1.3201 0.215544,-4.0489 0.600075,-5.90338 0,-109.4837 0,-218.9674 0,-328.4511 -1.320094,-1.3823973 -4.048893,-0.21554521 -5.903376,-0.60007401 -9.861746,0.002298 -19.723496,-0.005646 -29.585238,0.006215 z"
     id="path551" />
  <path
     style="fill:#ffffff;stroke-width:0.353553"
     d="M 124.52054,-0.38462742 C 124.1943,10.536727 124.47461,21.56467 124.38105,32.526912 c 0,44.78343 0,89.566858 0,134.350288 1.32009,1.3824 4.04889,0.21554 5.90337,0.60008 18.31637,-0.13622 36.64467,0.30088 54.95339,-0.29624 7.50521,-0.24064 14.55774,-4.55981 19.01694,-10.46944 3.88083,-5.2589 5.64381,-11.88764 5.14545,-18.38659 C 209.4621,92.216468 209.3894,46.10787 209.3733,-6.905322e-4 208.05206,-1.3817116 205.32454,-0.21583281 203.46993,-0.60007401 c -26.16296,-10e-9 -52.32591,0 -78.48886,0 l -0.32025,0.14980166 z"
     id="path590" />
  <path
     style="fill:#ffffff;stroke-width:0.353553"
     d="m 124.52054,250.63828 c -0.32624,10.92135 -0.0459,21.9493 -0.13949,32.91154 0,16.73348 0,33.46696 0,50.20044 1.31898,1.3831 4.04764,0.22715 5.90128,0.61698 18.2207,-0.0238 36.45079,0.29443 54.6661,-0.0265 6.80864,-0.63439 13.54343,-3.62514 17.88734,-9.03202 4.92236,-5.21644 6.9643,-12.55892 6.56247,-19.61832 0.0892,-18.22252 -0.0247,-36.44552 -0.0249,-54.66821 -1.32121,-1.38116 -4.04874,-0.21506 -5.90337,-0.59939 -26.16296,0 -52.32591,0 -78.48886,0 l -0.32025,0.1498 z"
     id="path629" />
</svg>
