<?xml version="1.0" standalone="no"?>
<!DOCTYPE svg PUBLIC "-//W3C//DTD SVG 20010904//EN"
 "http://www.w3.org/TR/2001/REC-SVG-20010904/DTD/svg10.dtd">
<svg version="1.0" xmlns="http://www.w3.org/2000/svg"
 width="460.000000pt" height="460.000000pt" viewBox="0 0 460.000000 460.000000"
 preserveAspectRatio="xMidYMid meet">
<metadata>
Created by potrace 1.11, written by Peter Selinger 2001-2013
</metadata>
<g transform="translate(0.000000,460.000000) scale(0.100000,-0.100000)"
fill="#000000" stroke="none">
<path d="M1409 3833 c-8 -9 -5 -11 12 -8 31 6 44 21 18 21 -11 0 -25 -6 -30
-13z"/>
<path d="M1470 3840 c0 -15 -48 -28 -117 -31 -24 -2 -43 -6 -43 -11 0 -4 5 -8
11 -8 5 0 7 -5 3 -11 -4 -8 -12 -3 -21 12 -10 19 -13 20 -11 5 3 -18 -6 -23
-54 -28 -9 -1 -14 -6 -11 -11 3 -4 12 -6 20 -3 8 4 11 1 8 -5 -4 -6 -13 -8
-20 -5 -7 2 -16 2 -20 -2 -4 -4 -12 -7 -18 -7 -7 0 -11 -7 -11 -16 1 -16 -10
-19 -55 -19 -18 0 -21 -3 -12 -13 11 -14 10 -15 -38 -19 -16 -2 -18 -6 -9 -23
9 -16 8 -18 -3 -7 -16 14 -33 16 -24 2 4 -6 -6 -10 -23 -10 -17 0 -32 -6 -35
-14 -4 -11 -1 -13 11 -9 9 3 14 3 10 -1 -7 -8 -31 -14 -62 -15 -12 -1 -16 -6
-13 -15 4 -10 1 -13 -7 -10 -7 3 -19 -2 -26 -11 -7 -8 -18 -15 -24 -15 -6 0
-4 5 4 11 13 9 13 10 0 6 -8 -2 -14 -12 -14 -21 1 -9 -3 -16 -10 -15 -26 3
-38 -2 -33 -14 4 -12 -6 -16 -52 -19 -8 -1 -16 -10 -19 -20 -3 -13 -15 -18
-46 -19 -22 -1 -33 -3 -23 -6 18 -5 18 -6 -2 -19 -12 -9 -26 -12 -31 -9 -6 3
-10 2 -10 -4 0 -6 -7 -8 -15 -5 -8 4 -15 1 -15 -6 0 -6 4 -9 8 -6 4 2 14 0 22
-5 13 -9 13 -10 0 -8 -32 3 -70 -1 -69 -8 4 -23 -3 -35 -16 -29 -12 4 -15 -3
-15 -34 0 -36 3 -40 25 -41 46 -3 50 -4 51 -16 3 -24 4 -25 19 -13 12 10 15
10 15 -1 0 -12 2 -12 9 0 6 9 11 10 15 2 4 -6 12 -9 17 -5 5 3 7 9 4 14 -3 5
-1 11 4 14 5 4 13 1 17 -5 4 -8 3 -9 -4 -5 -8 5 -10 1 -5 -9 4 -12 8 -13 13
-5 5 7 10 8 14 2 6 -10 48 -8 65 3 6 3 11 0 11 -7 0 -10 2 -10 9 1 6 9 11 10
15 2 4 -6 12 -9 17 -5 5 3 7 9 4 14 -3 5 -1 11 4 14 5 4 13 1 17 -5 4 -8 3 -9
-4 -5 -8 5 -10 1 -5 -9 4 -12 8 -13 13 -5 5 7 10 8 14 2 6 -10 48 -8 65 3 6 3
11 0 11 -7 0 -10 2 -10 9 1 6 9 11 10 15 2 4 -6 11 -9 16 -6 4 3 14 3 22 0 10
-4 13 -30 12 -105 -1 -68 2 -100 10 -100 8 0 8 -2 0 -8 -6 -4 -11 -24 -10 -44
0 -20 3 -34 6 -31 3 2 5 9 5 14 0 14 19 6 21 -9 1 -6 -1 -10 -6 -7 -4 3 -11
-2 -14 -11 -9 -24 -7 -28 7 -16 10 8 13 -7 14 -76 2 -110 1 -104 15 -96 8 5 8
3 2 -7 -11 -17 -12 -79 -2 -73 5 3 6 18 3 35 -3 16 -1 29 3 29 5 0 10 -26 12
-57 4 -77 8 -146 9 -158 1 -5 5 -3 10 4 6 9 5 23 -1 35 -10 19 -10 20 5 7 10
-7 17 -19 16 -25 -5 -38 2 -106 10 -101 5 3 13 0 17 -6 4 -7 3 -9 -4 -5 -6 3
-13 2 -17 -4 -3 -5 1 -10 10 -10 9 0 13 -4 10 -10 -3 -5 -1 -10 4 -10 6 0 11
-5 11 -11 0 -5 -6 -7 -12 -3 -9 6 -9 3 0 -9 8 -9 11 -21 7 -27 -6 -9 7 -14 28
-11 4 0 7 -4 7 -10 0 -6 -9 -8 -22 -3 -20 6 -21 5 -9 -9 7 -9 17 -15 21 -12 4
2 7 -12 8 -32 1 -19 6 -41 12 -48 5 -6 7 -15 3 -18 -3 -4 -1 -7 5 -7 5 0 13 6
15 13 3 6 5 -4 5 -23 -1 -62 0 -64 19 -49 10 8 14 9 10 2 -4 -6 -3 -14 1 -17
5 -3 8 -17 6 -31 -1 -17 4 -29 14 -33 17 -7 22 -19 25 -54 1 -9 5 -14 9 -12 5
3 5 10 2 16 -4 7 -2 8 5 4 6 -4 9 -12 6 -17 -4 -5 -1 -9 4 -9 6 0 11 -11 11
-25 0 -14 5 -24 12 -23 7 2 14 -7 16 -19 2 -15 8 -20 20 -17 13 5 13 2 -3 -12
-17 -14 -17 -16 -2 -11 13 5 20 0 27 -18 5 -14 16 -25 24 -25 9 0 12 -7 9 -20
-4 -15 -1 -18 16 -15 16 3 21 -1 21 -16 0 -11 7 -19 16 -19 10 0 14 -5 10 -16
-3 -8 -2 -12 4 -9 6 3 10 1 10 -5 0 -7 8 -9 19 -5 16 5 18 2 14 -15 -4 -16 -1
-20 18 -20 12 0 19 -3 16 -7 -11 -10 13 -33 34 -33 11 0 19 -5 19 -11 0 -5 -5
-7 -12 -3 -7 4 -8 3 -4 -5 4 -6 12 -9 17 -6 5 4 9 2 9 -2 0 -5 13 -8 29 -7 21
1 28 -2 27 -15 -1 -11 9 -17 32 -19 24 -2 32 -7 28 -17 -3 -8 -1 -17 4 -20 9
-6 14 8 11 28 -1 5 3 6 8 2 6 -3 8 -12 5 -20 -4 -10 0 -12 16 -8 13 3 25 0 30
-7 5 -9 13 -9 27 -2 13 7 24 7 34 0 11 -8 11 -9 -3 -5 -9 3 -22 0 -28 -8 -8
-10 -6 -13 12 -13 69 2 148 -6 148 -14 0 -5 -6 -6 -12 -2 -10 6 -9 3 0 -8 8
-9 20 -14 29 -11 10 4 11 8 3 13 -8 5 -7 9 5 13 9 4 13 3 10 -3 -3 -6 -1 -10
5 -10 6 0 8 -5 4 -12 -4 -7 -3 -8 5 -4 6 4 9 13 5 19 -3 7 2 3 10 -7 10 -13
16 -15 16 -7 0 11 3 11 15 1 11 -9 15 -9 15 -1 0 7 5 9 13 4 16 -10 38 -13 32
-4 -2 4 9 8 25 8 17 0 27 -5 23 -10 -3 -6 -1 -7 6 -3 6 4 9 13 5 19 -3 7 2 3
10 -7 10 -13 16 -15 16 -7 0 11 3 11 15 1 11 -9 15 -9 15 -1 0 7 5 9 13 4 19
-12 38 -12 31 -1 -4 6 2 8 17 3 19 -5 21 -4 9 5 -12 9 -10 10 9 5 18 -6 22 -4
15 6 -6 11 -5 12 7 2 13 -10 15 -38 15 -147 -1 -74 2 -132 7 -129 4 2 7 -1 7
-6 0 -6 -5 -11 -11 -11 -8 0 -7 -6 2 -17 8 -9 10 -14 4 -11 -5 3 -11 -5 -11
-18 -1 -14 2 -21 9 -17 5 3 7 1 3 -5 -12 -20 -15 -92 -3 -86 9 5 9 4 0 -6 -6
-7 -9 -19 -6 -26 3 -8 1 -14 -3 -15 -5 0 -75 -1 -156 -2 -80 -1 -150 -6 -154
-10 -4 -4 -9 -17 -11 -30 -2 -12 -9 -26 -15 -32 -7 -7 -9 -7 -5 1 4 7 -1 18
-10 25 -15 12 -16 12 -8 -1 12 -20 15 -40 6 -40 -14 0 -6 -45 8 -51 8 -3 16
-13 18 -22 1 -9 4 -24 6 -32 2 -8 7 -18 12 -22 4 -4 5 -2 1 5 -4 6 -2 12 3 12
6 0 11 -4 11 -10 0 -6 85 -10 235 -10 202 0 235 2 235 15 0 8 9 15 20 15 11 0
21 6 21 13 1 6 2 145 3 309 0 163 3 299 6 302 4 3 5 -28 5 -69 -1 -41 2 -75 7
-75 4 0 7 17 6 38 0 22 2 44 6 50 3 6 2 14 -4 17 -8 5 -8 11 0 20 8 10 5 17
-12 30 l-23 17 23 -5 c21 -5 23 -3 18 21 -3 15 -3 21 0 15 4 -10 11 -10 26 -2
15 8 19 8 14 0 -4 -6 -2 -11 4 -11 6 0 8 -5 4 -12 -4 -7 -3 -8 5 -4 6 4 9 13
5 19 -3 7 2 3 10 -7 10 -13 16 -15 16 -7 0 11 3 11 15 1 11 -9 15 -9 15 -1 0
7 5 9 13 4 16 -10 38 -13 32 -4 -2 4 9 8 25 8 17 0 27 -5 23 -10 -3 -6 -1 -7
6 -3 6 4 9 13 5 19 -3 7 2 3 10 -7 10 -13 16 -15 16 -7 0 11 3 11 15 1 11 -9
15 -9 15 -1 0 7 5 9 13 4 16 -10 38 -13 32 -4 -2 4 9 8 25 8 17 0 27 -5 23
-10 -3 -6 -1 -7 6 -3 6 4 9 13 5 19 -3 7 2 3 10 -7 10 -13 16 -15 16 -7 0 11
3 11 15 1 11 -9 15 -9 15 -1 0 7 5 9 13 4 18 -11 38 -13 31 -2 -3 5 -1 9 5 9
5 0 13 -5 16 -10 5 -8 11 -8 20 0 10 8 14 8 17 -2 3 -8 6 -7 10 4 5 12 0 15
-23 13 -16 -1 -27 1 -24 5 5 9 51 7 61 -3 4 -3 16 -2 27 4 14 8 18 8 13 0 -4
-6 -2 -11 4 -11 6 0 8 -5 4 -12 -4 -7 -3 -8 5 -4 6 4 9 13 5 19 -3 7 2 3 10
-7 9 -11 16 -14 16 -8 0 10 5 10 20 2 20 -11 21 -10 24 12 1 14 104 20 112 6
3 -5 9 -6 14 -3 5 3 11 1 15 -4 3 -6 -4 -8 -15 -6 -11 2 -18 0 -15 -5 9 -15
40 -4 37 14 -3 18 13 22 24 4 4 -7 3 -8 -4 -4 -8 5 -10 1 -5 -9 4 -12 8 -13
13 -5 6 9 9 9 15 1 5 -9 10 -9 20 -1 10 8 14 7 18 -2 4 -10 6 -10 6 1 1 11 4
11 16 1 12 -10 15 -10 15 0 0 10 3 10 15 0 11 -10 18 -10 29 -1 11 9 15 9 18
-1 3 -8 6 -7 10 3 5 13 -4 15 -53 14 -32 -1 -59 1 -59 5 0 9 117 7 126 -2 3
-4 16 -3 27 3 14 8 18 8 13 0 -4 -6 -2 -11 4 -11 6 0 8 -5 4 -12 -4 -7 -3 -8
5 -4 6 4 9 13 5 19 -3 7 2 3 10 -7 10 -13 16 -15 16 -7 0 11 3 11 15 1 12 -10
15 -10 15 0 0 10 3 10 14 1 10 -8 16 -9 21 -1 3 5 11 10 16 10 6 0 7 -6 3 -12
-6 -10 -4 -10 8 0 9 7 19 9 22 4 6 -10 63 -9 73 2 3 3 13 0 21 -7 13 -10 14
-9 7 2 -6 11 -4 13 8 8 11 -4 14 -2 10 9 -3 9 2 14 15 14 25 0 37 16 21 26 -8
4 -9 3 -5 -4 4 -7 2 -12 -4 -12 -7 0 -10 6 -7 13 2 6 13 12 24 11 11 -1 20 5
20 12 0 7 -4 11 -8 9 -4 -3 -9 2 -13 10 -3 8 0 17 6 21 7 4 8 3 4 -4 -4 -7 -1
-12 8 -12 13 0 15 10 14 49 -2 27 -6 48 -9 45 -4 -2 -5 -18 -3 -35 2 -18 1
-29 -3 -25 -4 4 -8 21 -9 39 -2 36 -18 83 -28 80 -16 -7 -56 -2 -56 7 0 5 6 7
14 4 8 -3 16 -2 19 3 3 5 -38 9 -91 10 -162 1 -260 8 -255 16 3 5 11 6 19 3 8
-3 14 -1 14 4 0 6 -9 11 -20 11 -44 3 -80 7 -87 9 -5 1 -12 2 -18 0 -5 -1 -14
5 -20 13 -6 8 -19 17 -30 19 -11 2 -19 10 -17 17 1 7 -2 10 -8 6 -6 -3 -7 -11
-4 -17 4 -6 1 -9 -7 -6 -8 3 -14 11 -14 19 0 15 -4 16 -59 18 -25 1 -36 7 -41
20 -4 13 -13 18 -30 16 -20 -2 -23 0 -14 11 12 15 4 21 -41 26 -14 2 -23 7
-22 12 5 13 -19 26 -50 26 -20 0 -26 4 -22 15 6 14 -11 20 -38 16 -5 0 -8 9
-9 21 0 14 -3 17 -6 9 -4 -10 -9 -8 -19 10 -7 13 -13 18 -14 12 0 -21 -20 -15
-20 6 0 14 -6 19 -20 16 -15 -3 -20 2 -20 17 0 12 -5 18 -13 15 -17 -6 -41 20
-24 26 7 3 2 6 -10 6 -12 1 -24 9 -28 21 -4 11 -10 18 -15 15 -5 -3 -11 -1
-15 5 -4 6 -12 7 -18 3 -7 -4 -6 1 2 10 12 15 12 17 -3 11 -9 -3 -16 -1 -16 5
0 6 -9 11 -20 11 -13 0 -20 7 -20 20 0 13 -7 20 -20 20 -11 0 -19 3 -19 8 3
20 -2 31 -15 26 -8 -3 -16 3 -19 16 -3 12 -10 19 -16 15 -6 -3 -11 -3 -12 2
-3 35 -19 72 -19 45 0 -22 -15 -12 -29 19 -10 23 -16 28 -22 18 -6 -10 -9 -4
-9 18 0 17 -5 35 -12 39 -8 5 -9 2 -5 -9 4 -11 1 -17 -7 -17 -8 0 -13 8 -12
18 0 10 -6 17 -14 16 -14 -1 -19 10 -22 54 -1 6 -10 12 -20 12 -12 0 -18 7
-18 21 0 15 -5 19 -16 15 -11 -4 -14 0 -12 16 2 15 -2 23 -12 24 -30 2 -32 4
-19 21 10 11 10 14 2 9 -8 -4 -13 -2 -13 4 0 7 -7 9 -16 6 -11 -4 -15 -2 -11
8 3 8 -2 17 -11 21 -14 5 -14 7 -2 16 12 7 11 10 -7 15 -13 4 -23 13 -23 20 0
8 -8 18 -17 22 -10 4 -18 14 -18 22 0 8 -7 15 -16 14 -9 -1 -16 4 -16 11 0 8
9 12 19 10 10 -2 16 0 13 6 -4 5 -10 7 -14 4 -5 -2 -17 3 -27 11 -10 9 -13 13
-6 9 6 -3 12 -1 12 4 0 6 -6 11 -14 11 -8 0 -18 9 -21 20 -3 11 -14 20 -23 20
-15 0 -15 2 -2 10 13 8 13 10 -2 10 -12 0 -16 6 -13 21 3 15 -2 23 -15 26 -13
3 -20 14 -20 28 0 19 -4 22 -22 18 -22 -4 -22 -4 2 12 21 13 22 15 5 13 -15
-2 -20 2 -19 20 1 15 -4 22 -17 22 -11 0 -19 7 -19 16 0 9 -8 22 -17 29 -17
12 -23 31 -25 73 0 21 -1 21 -15 5 -14 -17 -14 -17 -9 0 3 9 0 17 -5 17 -6 0
-9 9 -6 20 4 15 0 20 -14 20 -10 0 -18 3 -18 8 5 30 -4 55 -21 59 -11 3 -17 9
-14 15 3 5 0 16 -8 25 -11 14 -11 16 0 9 11 -7 12 -4 3 13 -7 11 -14 21 -17
21 -3 0 -3 -4 1 -9 3 -5 0 -13 -6 -17 -7 -4 -9 -3 -5 4 3 6 2 13 -2 16 -5 3
-7 17 -4 31 2 15 0 25 -7 25 -7 0 -10 -4 -7 -8 3 -5 -1 -9 -9 -9 -12 0 -12 4
2 19 14 15 14 19 3 16 -10 -2 -15 5 -14 20 1 17 -3 22 -14 17 -12 -4 -13 -3
-2 10 7 9 10 19 6 22 -4 4 -12 1 -17 -7 -8 -12 -10 -10 -6 8 3 12 1 22 -4 22
-5 0 -7 11 -5 25 3 13 2 24 -2 24 -22 -3 -32 3 -32 22 0 18 -2 19 -15 9 -10
-9 -15 -9 -16 -1 -4 35 -16 51 -33 45 -9 -3 -13 1 -13 13 1 11 -4 18 -15 17
-10 -1 -18 1 -18 5 0 4 -7 16 -16 27 -14 18 -15 18 -4 -3 6 -14 7 -23 1 -23
-5 0 -12 9 -16 19 -4 12 -12 18 -21 14 -12 -4 -18 6 -16 28 0 3 -9 5 -21 6
-79 2 -117 9 -117 21 0 9 5 10 19 2 11 -5 23 -10 28 -10 4 1 -3 7 -16 14 -19
10 -29 11 -43 3 -13 -8 -14 -14 -5 -20 9 -6 8 -7 -3 -4 -8 2 -16 9 -16 15 -3
23 -4 24 -19 12 -12 -10 -15 -10 -15 1 0 11 -2 11 -10 -1 -9 -13 -10 -13 -10
0 0 13 -1 13 -10 0 -5 -8 -10 -10 -10 -5 0 6 -9 11 -20 12 -11 1 -20 -2 -20
-7z m275 -50 c3 -5 1 -10 -4 -10 -6 0 -11 5 -11 10 0 6 2 10 4 10 3 0 8 -4 11
-10z m219 -178 c3 -5 -1 -9 -9 -9 -8 0 -12 4 -9 9 3 4 7 8 9 8 2 0 6 -4 9 -8z
m-459 -82 c-4 -6 5 -10 19 -10 16 0 26 -6 26 -15 0 -8 7 -15 15 -15 11 0 15
-11 15 -40 0 -28 -4 -40 -14 -40 -8 0 -18 -5 -22 -11 -4 -8 1 -9 17 -5 18 5
20 4 9 -3 -22 -14 -99 -21 -106 -10 -3 5 -10 7 -15 4 -8 -6 -13 9 -10 29 1 5
-6 6 -16 2 -16 -5 -16 -4 -3 6 14 12 20 36 21 81 0 11 8 17 24 17 13 0 27 5
30 10 3 6 8 10 11 10 3 0 2 -4 -1 -10z m-77 -55 c-6 -13 -15 -22 -19 -19 -5 2
-1 14 9 24 22 26 24 25 10 -5z m-797 -228 c-10 -9 -11 -8 -5 6 3 10 9 15 12
12 3 -3 0 -11 -7 -18z m50 6 c12 -16 12 -17 -2 -6 -9 7 -19 10 -22 6 -4 -3 -7
-1 -7 5 0 17 16 15 31 -5z m106 3 c-2 -6 -14 -10 -27 -10 -13 0 -25 4 -27 10
-2 6 10 11 27 11 17 0 29 -5 27 -11z m54 -3 c12 -16 12 -17 -2 -6 -9 7 -19 10
-22 6 -4 -3 -7 -1 -7 5 0 17 16 15 31 -5z m106 3 c-2 -6 -14 -10 -27 -10 -13
0 -25 4 -27 10 -2 6 10 11 27 11 17 0 29 -5 27 -11z m90 -2 c0 -9 -29 -11 -47
-4 -3 1 -8 2 -12 1 -5 0 -8 3 -8 8 0 4 15 8 33 7 19 0 34 -6 34 -12z m677
-496 c-6 -10 -3 -9 8 0 13 10 22 11 37 2 12 -6 21 -13 21 -16 0 -3 -5 -2 -12
2 -7 4 -8 3 -4 -5 6 -9 11 -9 21 -1 10 8 12 1 11 -35 -1 -32 2 -44 10 -41 15
6 20 -7 23 -64 2 -26 9 -48 17 -53 12 -7 32 -80 26 -99 -1 -4 7 -5 18 -3 15 3
19 -1 17 -18 -1 -12 3 -21 10 -20 6 1 14 -4 17 -12 3 -9 0 -12 -10 -8 -7 3
-14 0 -14 -7 0 -6 4 -9 9 -6 4 3 17 -2 27 -10 10 -9 13 -12 5 -8 -9 4 -12 2
-9 -7 3 -8 11 -14 19 -14 8 0 13 -8 13 -18 -1 -11 6 -17 21 -17 18 0 22 -4 18
-20 -4 -15 -1 -18 16 -15 16 3 21 -1 21 -16 0 -18 6 -22 42 -22 9 0 16 -4 15
-10 -1 -6 9 -16 23 -24 14 -7 24 -17 22 -23 -1 -5 7 -10 18 -10 18 0 25 -10
21 -33 0 -4 2 -6 6 -6 33 5 84 -4 97 -17 9 -8 32 -16 51 -17 19 -1 35 -4 35
-7 0 -3 9 -6 20 -6 11 0 20 4 20 9 0 5 6 5 13 0 6 -6 20 -9 29 -8 10 2 15 -2
12 -10 -5 -11 21 -13 128 -14 337 0 308 2 308 -25 0 -14 4 -28 10 -31 6 -4 7
1 4 12 -5 16 -4 16 10 -1 20 -25 20 -30 -1 -47 -16 -13 -17 -12 -4 4 10 12 10
17 1 17 -6 0 -14 -9 -17 -19 -6 -24 -29 -27 -233 -25 -249 2 -390 8 -378 15
21 13 -18 26 -91 30 -16 1 -19 4 -10 10 7 4 11 10 8 13 -5 5 -49 13 -83 15 -6
1 -1 8 10 16 10 8 15 15 9 14 -5 -1 -25 -1 -44 0 -29 1 -32 3 -21 16 7 8 11
15 9 16 -2 0 -19 2 -38 5 -42 5 -50 12 -31 24 12 8 9 10 -11 10 -19 0 -28 6
-33 23 -5 17 -8 19 -15 9 -6 -10 -11 -6 -19 16 -7 20 -17 30 -29 29 -12 -2
-17 4 -15 17 3 14 -1 17 -12 13 -12 -5 -16 0 -16 18 0 14 -3 24 -7 24 -17 -3
-33 1 -32 9 3 19 -2 33 -10 27 -5 -3 -13 0 -17 6 -4 7 -3 9 4 5 6 -3 13 -2 17
4 3 5 -3 10 -14 10 -14 0 -19 5 -16 20 3 18 -5 25 -27 21 -5 0 -8 6 -8 15 0 9
5 12 13 8 10 -6 10 -4 0 7 -7 7 -13 22 -13 34 0 13 -3 16 -8 8 -5 -9 -11 -6
-21 9 -12 19 -11 20 4 14 15 -6 16 -4 4 10 -7 9 -14 26 -16 37 -2 12 -9 27
-16 32 -7 6 -14 26 -16 45 -3 36 -17 53 -35 43 -5 -3 -6 -1 -2 5 4 6 13 9 21
5 8 -3 15 0 15 6 0 9 -11 14 -30 13 -3 0 -5 11 -5 24 0 13 4 24 8 24 5 0 5 4
2 10 -4 6 1 7 11 3 13 -5 16 -2 12 9 -4 9 -1 21 5 27 15 15 30 14 21 -1z m-7
-233 c0 -8 -4 -12 -9 -9 -4 3 -8 9 -8 15 0 5 4 9 8 9 5 0 9 -7 9 -15z m1300
-361 c-3 -3 -12 -4 -19 -1 -8 3 -5 6 6 6 11 1 17 -2 13 -5z m-783 -25 c-3 -5
-10 -7 -15 -3 -5 3 -7 10 -3 15 3 5 10 7 15 3 5 -3 7 -10 3 -15z m291 -69 c3
-6 -1 -7 -9 -4 -18 7 -21 14 -7 14 6 0 13 -4 16 -10z m-1188 -6 c-3 -3 -12 -4
-19 -1 -8 3 -5 6 6 6 11 1 17 -2 13 -5z m1961 -119 c-3 -3 -9 2 -12 12 -6 14
-5 15 5 6 7 -7 10 -15 7 -18z m-758 -23 c0 -5 -7 -9 -15 -9 -8 0 -12 4 -9 9 3
4 9 8 15 8 5 0 9 -4 9 -8z m60 -5 c0 -5 -6 -7 -14 -4 -7 3 -18 1 -23 -4 -6 -6
-10 -5 -10 4 0 7 11 13 24 13 13 0 23 -4 23 -9z m80 2 c0 -5 -13 -6 -30 -4
-17 2 -30 -1 -30 -7 0 -6 -3 -9 -6 -5 -3 3 -4 10 -1 15 7 10 67 11 67 1z m50
1 c-8 -5 -18 -6 -22 -4 -4 3 -8 0 -8 -7 0 -7 -3 -10 -6 -6 -10 10 4 23 28 24
17 2 19 0 8 -7z m145 -8 c3 -8 0 -10 -7 -6 -6 4 -26 7 -45 6 -18 -1 -33 2 -33
6 0 14 79 8 85 -6z m493 4 c-7 -8 -15 -12 -17 -11 -5 6 10 25 20 25 5 0 4 -6
-3 -14z m-608 -6 c0 -5 -5 -10 -11 -10 -5 0 -7 5 -4 10 3 6 8 10 11 10 2 0 4
-4 4 -10z m753 -65 c-3 -9 -8 -14 -10 -11 -3 3 -2 9 2 15 9 16 15 13 8 -4z
m502 -105 c3 -5 1 -10 -4 -10 -6 0 -11 5 -11 10 0 6 2 10 4 10 3 0 8 -4 11
-10z m80 -40 c3 -5 1 -10 -4 -10 -6 0 -11 5 -11 10 0 6 2 10 4 10 3 0 8 -4 11
-10z m-1877 -208 c-6 -7 -15 -9 -22 -4 -6 4 -21 7 -33 6 -13 0 -23 2 -23 5 0
4 20 7 44 7 35 -1 42 -4 34 -14z m47 8 c-3 -5 -12 -10 -18 -10 -7 0 -6 4 3 10
19 12 23 12 15 0z m113 -8 c-6 -7 -15 -9 -22 -4 -6 4 -21 7 -33 6 -13 0 -23 2
-23 5 0 4 20 7 44 7 35 -1 42 -4 34 -14z m480 0 c-6 -7 -15 -9 -22 -4 -6 4
-21 7 -33 6 -13 0 -23 2 -23 5 0 4 20 7 44 7 35 -1 42 -4 34 -14z m47 8 c-3
-5 -12 -10 -18 -10 -7 0 -6 4 3 10 19 12 23 12 15 0z m113 -8 c-6 -7 -15 -9
-22 -4 -6 4 -21 7 -33 6 -13 0 -23 2 -23 5 0 4 20 7 44 7 35 -1 42 -4 34 -14z
m47 8 c-3 -5 -12 -10 -18 -10 -7 0 -6 4 3 10 19 12 23 12 15 0z m113 -8 c-6
-7 -15 -9 -22 -4 -6 4 -21 7 -33 6 -13 0 -23 2 -23 5 0 4 20 7 44 7 35 -1 42
-4 34 -14z m207 1 c3 -10 0 -11 -14 -4 -10 6 -21 7 -25 4 -3 -3 -6 -1 -6 5 0
15 38 11 45 -5z m220 8 c3 -5 0 -13 -6 -17 -7 -4 -9 -3 -5 4 3 5 0 13 -6 15
-9 4 -10 6 -1 6 6 1 14 -3 18 -8z m293 0 c2 -1 0 -6 -3 -11 -4 -7 -12 -7 -18
-2 -7 4 -22 7 -34 6 -13 0 -23 2 -23 6 0 6 59 6 78 1z m92 -1 c3 -1 10 -1 15
0 38 8 47 9 41 3 -14 -15 -95 -23 -102 -12 -3 5 -9 7 -14 4 -5 -3 -11 -2 -14
3 -4 7 59 9 74 2z"/>
<path d="M1670 2680 c0 -5 5 -10 10 -10 6 0 10 5 10 10 0 6 -4 10 -10 10 -5 0
-10 -4 -10 -10z"/>
<path d="M1805 2641 c-3 -5 -2 -12 3 -15 5 -3 9 1 9 9 0 17 -3 19 -12 6z"/>
<path d="M1836 2525 c4 -8 8 -15 10 -15 2 0 4 7 4 15 0 8 -4 15 -10 15 -5 0
-7 -7 -4 -15z"/>
<path d="M2083 2207 c0 -8 6 -14 14 -14 9 0 10 4 2 14 -6 7 -12 13 -14 13 -1
0 -2 -6 -2 -13z"/>
<path d="M2418 2058 c-9 -5 -6 -7 9 -5 12 2 25 6 28 8 8 9 -23 6 -37 -3z"/>
<path d="M2310 1971 c0 -5 5 -13 10 -16 6 -3 10 -2 10 4 0 5 -4 13 -10 16 -5
3 -10 2 -10 -4z"/>
<path d="M576 3252 c5 -4 12 -11 15 -15 3 -5 9 -2 12 5 3 9 -3 14 -15 15 -11
1 -16 -1 -12 -5z"/>
<path d="M2207 3149 c7 -7 15 -10 18 -7 3 3 -2 9 -12 12 -14 6 -15 5 -6 -5z"/>
<path d="M3750 1796 c0 -2 8 -10 18 -17 15 -13 16 -12 3 4 -13 16 -21 21 -21
13z"/>
<path d="M3398 1481 c4 -11 7 -11 10 -3 3 10 7 10 18 1 11 -9 17 -9 28 0 11 9
15 9 18 -1 3 -8 6 -8 10 3 5 12 -4 15 -42 15 -38 0 -47 -3 -42 -15z"/>
<path d="M3256 1478 c3 -4 11 -5 19 -1 21 7 19 12 -4 10 -11 0 -18 -5 -15 -9z"/>
<path d="M3736 1478 c3 -4 11 -5 19 -1 21 7 19 12 -4 10 -11 0 -18 -5 -15 -9z"/>
<path d="M2673 1275 c0 -8 4 -15 9 -15 4 0 8 7 8 15 0 8 -4 15 -8 15 -5 0 -9
-7 -9 -15z"/>
<path d="M2675 1155 c0 -52 4 -95 8 -95 5 0 7 20 4 45 -2 25 0 45 5 45 5 0 7
4 3 9 -10 17 -13 71 -3 71 5 0 6 5 3 10 -15 25 -21 3 -20 -85z"/>
<path d="M2670 1041 c0 -5 6 -12 13 -14 9 -4 9 -6 -1 -6 -7 -1 -10 -6 -6 -12
9 -15 24 9 17 28 -6 15 -23 18 -23 4z"/>
<path d="M2674 965 c0 -14 4 -25 8 -25 4 0 8 11 8 25 0 14 -4 25 -8 25 -4 0
-8 -11 -8 -25z"/>
<path d="M2674 894 c2 -19 7 -38 12 -42 4 -4 4 1 1 11 -4 10 -1 17 6 17 8 0 8
3 -2 9 -9 6 -10 11 -2 15 12 8 6 26 -9 26 -5 0 -7 -16 -6 -36z"/>
<path d="M2630 802 c0 -5 7 -9 15 -9 8 0 12 4 9 9 -3 4 -9 8 -15 8 -5 0 -9 -4
-9 -8z"/>
</g>
</svg>
